# xmcd
#
# Track frame offsets: 
#        150
#        13537
#        28626
#        40035
#        50553
#        68294
#        80704
#        93386
#        117593
#        138914
#
# Disc length: 2140 seconds
#
# Revision: 0
# Processed by: cddbd v1.5.2PL0 Copyright (c) Steve Scherf et al.
# Submitted via: ExactAudioCopyFreeDBPlugin 1.0
#
DISCID=7a085a0a
DTITLE=Various Artist - Forever Soul R&B, Disc 2
DYEAR=2008
DGENRE=R&B
TTITLE0=Percy Sledge - When a Man Loves a Woman
TTITLE1=The Miracles - Tracks of My Tears
TTITLE2=Clarence Carter - Slip Away
TTITLE3=James Brown - Papa's Got a Brand New Bag (Live)
TTITLE4=Marvin Gaye - I Heard It Through the Grapevine (Live)
TTITLE5=The Miracles - I Second That Emotion
TTITLE6=Mary Wells - My Guy
TTITLE7=Dionne Warwick - I Say a Little Prayer (Live)
TTITLE8=Marvin Gaye - Got to Give It Up (Live)
TTITLE9=Heatwave - Always and Forever
EXTD=
EXTT0=
EXTT1=
EXTT2=
EXTT3=
EXTT4=
EXTT5=
EXTT6=
EXTT7=
EXTT8=
EXTT9=
PLAYORDER=
